<svg width="2297" height="500" viewBox="0 0 2297 500" fill="none" xmlns="http://www.w3.org/2000/svg">
<rect width="2297" height="500" rx="50" fill="#2A2A2A"/>
<path d="M933.68 205.5C933.19 199.368 930.891 194.586 926.782 191.152C922.735 187.718 916.573 186.001 908.295 186.001C903.022 186.001 898.699 186.645 895.327 187.933C892.016 189.159 889.563 190.845 887.969 192.991C886.375 195.138 885.547 197.59 885.486 200.349C885.363 202.618 885.762 204.672 886.681 206.512C887.663 208.29 889.195 209.915 891.28 211.386C893.365 212.797 896.032 214.084 899.282 215.249C902.532 216.414 906.395 217.457 910.871 218.376L926.322 221.688C936.746 223.895 945.668 226.807 953.087 230.425C960.506 234.043 966.577 238.304 971.298 243.21C976.019 248.054 979.484 253.511 981.691 259.581C983.96 265.651 985.125 272.273 985.186 279.447C985.125 291.833 982.028 302.318 975.897 310.903C969.765 319.487 960.997 326.017 949.592 330.493C938.248 334.969 924.606 337.207 908.663 337.207C892.292 337.207 878.005 334.785 865.803 329.941C853.663 325.097 844.22 317.647 837.475 307.592C830.792 297.474 827.419 284.537 827.358 268.778H875.92C876.227 274.542 877.668 279.386 880.243 283.31C882.819 287.235 886.436 290.208 891.096 292.232C895.818 294.255 901.428 295.267 907.928 295.267C913.385 295.267 917.953 294.593 921.632 293.244C925.311 291.895 928.101 290.025 930.001 287.633C931.902 285.242 932.883 282.513 932.945 279.447C932.883 276.566 931.933 274.052 930.093 271.906C928.315 269.698 925.372 267.736 921.264 266.019C917.156 264.241 911.607 262.585 904.616 261.053L885.854 257.006C869.176 253.388 856.023 247.348 846.397 238.887C836.831 230.364 832.079 218.744 832.141 204.028C832.079 192.072 835.268 181.617 841.706 172.665C848.205 163.652 857.188 156.631 868.654 151.603C880.182 146.575 893.396 144.061 908.295 144.061C923.502 144.061 936.654 146.606 947.752 151.695C958.851 156.784 967.404 163.958 973.413 173.217C979.484 182.414 982.549 193.175 982.611 205.5H933.68ZM1005.37 387.977V193.727H1055.78V218.376H1056.88C1058.72 213.594 1061.42 209.21 1064.97 205.224C1068.53 201.177 1072.95 197.958 1078.22 195.567C1083.49 193.114 1089.62 191.888 1096.61 191.888C1105.93 191.888 1114.79 194.371 1123.19 199.338C1131.66 204.304 1138.52 212.122 1143.8 222.791C1149.13 233.46 1151.8 247.318 1151.8 264.364C1151.8 280.674 1149.25 294.194 1144.16 304.924C1139.14 315.655 1132.39 323.656 1123.93 328.93C1115.53 334.203 1106.3 336.839 1096.25 336.839C1089.62 336.839 1083.71 335.766 1078.49 333.62C1073.34 331.413 1068.93 328.439 1065.25 324.699C1061.63 320.897 1058.84 316.605 1056.88 311.822H1056.14V387.977H1005.37ZM1055.04 264.364C1055.04 271.231 1055.93 277.179 1057.71 282.207C1059.55 287.173 1062.12 291.036 1065.43 293.795C1068.81 296.493 1072.82 297.842 1077.48 297.842C1082.14 297.842 1086.1 296.524 1089.35 293.887C1092.66 291.19 1095.17 287.357 1096.89 282.391C1098.67 277.363 1099.56 271.354 1099.56 264.364C1099.56 257.374 1098.67 251.395 1096.89 246.429C1095.17 241.401 1092.66 237.568 1089.35 234.932C1086.1 232.234 1082.14 230.885 1077.48 230.885C1072.82 230.885 1068.81 232.234 1065.43 234.932C1062.12 237.568 1059.55 241.401 1057.71 246.429C1055.93 251.395 1055.04 257.374 1055.04 264.364ZM1173.07 335V193.727H1223.84V335H1173.07ZM1198.45 179.011C1191.58 179.011 1185.7 176.743 1180.79 172.205C1175.89 167.668 1173.43 162.211 1173.43 155.834C1173.43 149.457 1175.89 144 1180.79 139.462C1185.7 134.925 1191.58 132.656 1198.45 132.656C1205.38 132.656 1211.27 134.925 1216.11 139.462C1221.02 144 1223.47 149.457 1223.47 155.834C1223.47 162.211 1221.02 167.668 1216.11 172.205C1211.27 176.743 1205.38 179.011 1198.45 179.011ZM1300.47 255.534V335H1249.7V193.727H1297.9V220.584H1299.37C1302.44 211.632 1307.83 204.611 1315.56 199.522C1323.35 194.432 1332.42 191.888 1342.78 191.888C1352.78 191.888 1361.45 194.187 1368.81 198.786C1376.23 203.323 1381.96 209.578 1386.01 217.549C1390.12 225.52 1392.14 234.625 1392.08 244.865V335H1341.31V255.534C1341.37 248.544 1339.59 243.056 1335.98 239.071C1332.42 235.085 1327.45 233.092 1321.08 233.092C1316.91 233.092 1313.26 234.012 1310.13 235.852C1307.07 237.63 1304.71 240.205 1303.05 243.577C1301.39 246.888 1300.54 250.874 1300.47 255.534ZM1527.88 146.636H1579.02V267.307C1579.02 281.655 1575.59 294.071 1568.72 304.556C1561.91 314.98 1552.41 323.043 1540.21 328.746C1528 334.387 1513.84 337.207 1497.71 337.207C1481.46 337.207 1467.24 334.387 1455.04 328.746C1442.84 323.043 1433.33 314.98 1426.53 304.556C1419.78 294.071 1416.41 281.655 1416.41 267.307V146.636H1467.55V262.892C1467.55 268.717 1468.83 273.929 1471.41 278.528C1473.98 283.065 1477.54 286.621 1482.08 289.197C1486.68 291.772 1491.89 293.06 1497.71 293.06C1503.6 293.06 1508.81 291.772 1513.35 289.197C1517.89 286.621 1521.44 283.065 1524.02 278.528C1526.59 273.929 1527.88 268.717 1527.88 262.892V146.636ZM1604.06 387.977V193.727H1654.46V218.376H1655.56C1657.4 213.594 1660.1 209.21 1663.66 205.224C1667.21 201.177 1671.63 197.958 1676.9 195.567C1682.18 193.114 1688.31 191.888 1695.3 191.888C1704.62 191.888 1713.48 194.371 1721.88 199.338C1730.34 204.304 1737.21 212.122 1742.48 222.791C1747.82 233.46 1750.48 247.318 1750.48 264.364C1750.48 280.674 1747.94 294.194 1742.85 304.924C1737.82 315.655 1731.08 323.656 1722.61 328.93C1714.21 334.203 1704.99 336.839 1694.93 336.839C1688.31 336.839 1682.39 335.766 1677.18 333.62C1672.03 331.413 1667.61 328.439 1663.93 324.699C1660.32 320.897 1657.53 316.605 1655.56 311.822H1654.83V387.977H1604.06ZM1653.73 264.364C1653.73 271.231 1654.61 277.179 1656.39 282.207C1658.23 287.173 1660.81 291.036 1664.12 293.795C1667.49 296.493 1671.51 297.842 1676.17 297.842C1680.83 297.842 1684.78 296.524 1688.03 293.887C1691.34 291.19 1693.86 287.357 1695.57 282.391C1697.35 277.363 1698.24 271.354 1698.24 264.364C1698.24 257.374 1697.35 251.395 1695.57 246.429C1693.86 241.401 1691.34 237.568 1688.03 234.932C1684.78 232.234 1680.83 230.885 1676.17 230.885C1671.51 230.885 1667.49 232.234 1664.12 234.932C1660.81 237.568 1658.23 241.401 1656.39 246.429C1654.61 251.395 1653.73 257.374 1653.73 264.364Z" fill="white"/>
<mask id="mask0_3_6" style="mask-type:alpha" maskUnits="userSpaceOnUse" x="244" y="0" width="576" height="500">
<path d="M451.331 431.25C328.283 423.569 278.379 96.3563 510.879 86.4578C750.728 76.2463 670.008 446.513 491.233 325.224C427.777 282.154 484.506 171.75 546.17 198.481" stroke="#9C2AFF" stroke-opacity="0.9" stroke-width="32" stroke-linecap="round" stroke-linejoin="round"/>
<path d="M612.669 68.75C735.716 76.4313 785.621 403.644 553.121 413.542C313.272 423.754 393.992 53.4876 572.767 174.776C636.222 217.846 579.494 328.25 517.83 301.519" stroke="#9C2AFF" stroke-opacity="0.9" stroke-width="32" stroke-linecap="round" stroke-linejoin="round"/>
</mask>
<g mask="url(#mask0_3_6)">
<rect x="282" y="400" width="500" height="100" fill="#6C0BF4"/>
<rect x="282" y="300" width="500" height="100" fill="#A163F8"/>
<rect x="282" y="200" width="500" height="100" fill="#BB8FFA"/>
<rect x="282" y="100" width="500" height="100" fill="#D6BBFC"/>
<rect x="282" width="500" height="100" fill="#F0E7FE"/>
</g>
</svg>
