<svg width="2297" height="500" viewBox="0 0 2297 500" fill="none" xmlns="http://www.w3.org/2000/svg">
<rect width="2297" height="500" rx="50" fill="#2A2A2A"/>
<path d="M1057.68 205.5C1057.19 199.368 1054.89 194.586 1050.78 191.152C1046.74 187.718 1040.57 186.001 1032.3 186.001C1027.02 186.001 1022.7 186.645 1019.33 187.933C1016.02 189.159 1013.56 190.845 1011.97 192.991C1010.37 195.138 1009.55 197.59 1009.49 200.349C1009.36 202.618 1009.76 204.672 1010.68 206.512C1011.66 208.29 1013.2 209.915 1015.28 211.386C1017.36 212.797 1020.03 214.084 1023.28 215.249C1026.53 216.414 1030.39 217.457 1034.87 218.376L1050.32 221.688C1060.75 223.895 1069.67 226.807 1077.09 230.425C1084.51 234.043 1090.58 238.304 1095.3 243.21C1100.02 248.054 1103.48 253.511 1105.69 259.581C1107.96 265.651 1109.12 272.273 1109.19 279.447C1109.12 291.833 1106.03 302.318 1099.9 310.903C1093.77 319.487 1085 326.017 1073.59 330.493C1062.25 334.969 1048.61 337.207 1032.66 337.207C1016.29 337.207 1002.01 334.785 989.803 329.941C977.663 325.097 968.22 317.647 961.475 307.592C954.792 297.474 951.419 284.537 951.358 268.778H999.92C1000.23 274.542 1001.67 279.386 1004.24 283.31C1006.82 287.235 1010.44 290.208 1015.1 292.232C1019.82 294.255 1025.43 295.267 1031.93 295.267C1037.38 295.267 1041.95 294.593 1045.63 293.244C1049.31 291.895 1052.1 290.025 1054 287.633C1055.9 285.242 1056.88 282.513 1056.94 279.447C1056.88 276.566 1055.93 274.052 1054.09 271.906C1052.32 269.698 1049.37 267.736 1045.26 266.019C1041.16 264.241 1035.61 262.585 1028.62 261.053L1009.85 257.006C993.176 253.388 980.023 247.348 970.397 238.887C960.831 230.364 956.079 218.744 956.141 204.028C956.079 192.072 959.268 181.617 965.706 172.665C972.205 163.652 981.188 156.631 992.654 151.603C1004.18 146.575 1017.4 144.061 1032.3 144.061C1047.5 144.061 1060.65 146.606 1071.75 151.695C1082.85 156.784 1091.4 163.958 1097.41 173.217C1103.48 182.414 1106.55 193.175 1106.61 205.5H1057.68ZM1129.37 387.977V193.727H1179.78V218.376H1180.88C1182.72 213.594 1185.42 209.21 1188.97 205.224C1192.53 201.177 1196.95 197.958 1202.22 195.567C1207.49 193.114 1213.62 191.888 1220.61 191.888C1229.93 191.888 1238.79 194.371 1247.19 199.338C1255.66 204.304 1262.52 212.122 1267.8 222.791C1273.13 233.46 1275.8 247.318 1275.8 264.364C1275.8 280.674 1273.25 294.194 1268.16 304.924C1263.14 315.655 1256.39 323.656 1247.93 328.93C1239.53 334.203 1230.3 336.839 1220.25 336.839C1213.62 336.839 1207.71 335.766 1202.49 333.62C1197.34 331.413 1192.93 328.439 1189.25 324.699C1185.63 320.897 1182.84 316.605 1180.88 311.822H1180.14V387.977H1129.37ZM1179.04 264.364C1179.04 271.231 1179.93 277.179 1181.71 282.207C1183.55 287.173 1186.12 291.036 1189.43 293.795C1192.81 296.493 1196.82 297.842 1201.48 297.842C1206.14 297.842 1210.1 296.524 1213.35 293.887C1216.66 291.19 1219.17 287.357 1220.89 282.391C1222.67 277.363 1223.56 271.354 1223.56 264.364C1223.56 257.374 1222.67 251.395 1220.89 246.429C1219.17 241.401 1216.66 237.568 1213.35 234.932C1210.1 232.234 1206.14 230.885 1201.48 230.885C1196.82 230.885 1192.81 232.234 1189.43 234.932C1186.12 237.568 1183.55 241.401 1181.71 246.429C1179.93 251.395 1179.04 257.374 1179.04 264.364ZM1297.07 335V193.727H1347.84V335H1297.07ZM1322.45 179.011C1315.58 179.011 1309.7 176.743 1304.79 172.205C1299.89 167.668 1297.43 162.211 1297.43 155.834C1297.43 149.457 1299.89 144 1304.79 139.462C1309.7 134.925 1315.58 132.656 1322.45 132.656C1329.38 132.656 1335.27 134.925 1340.11 139.462C1345.02 144 1347.47 149.457 1347.47 155.834C1347.47 162.211 1345.02 167.668 1340.11 172.205C1335.27 176.743 1329.38 179.011 1322.45 179.011ZM1424.47 255.534V335H1373.7V193.727H1421.9V220.584H1423.37C1426.44 211.632 1431.83 204.611 1439.56 199.522C1447.35 194.432 1456.42 191.888 1466.78 191.888C1476.78 191.888 1485.45 194.187 1492.81 198.786C1500.23 203.323 1505.96 209.578 1510.01 217.549C1514.12 225.52 1516.14 234.625 1516.08 244.865V335H1465.31V255.534C1465.37 248.544 1463.59 243.056 1459.98 239.071C1456.42 235.085 1451.45 233.092 1445.08 233.092C1440.91 233.092 1437.26 234.012 1434.13 235.852C1431.07 237.63 1428.71 240.205 1427.05 243.577C1425.39 246.888 1424.54 250.874 1424.47 255.534ZM1651.88 146.636H1703.02V267.307C1703.02 281.655 1699.59 294.071 1692.72 304.556C1685.91 314.98 1676.41 323.043 1664.21 328.746C1652 334.387 1637.84 337.207 1621.71 337.207C1605.46 337.207 1591.24 334.387 1579.04 328.746C1566.84 323.043 1557.33 314.98 1550.53 304.556C1543.78 294.071 1540.41 281.655 1540.41 267.307V146.636H1591.55V262.892C1591.55 268.717 1592.83 273.929 1595.41 278.528C1597.98 283.065 1601.54 286.621 1606.08 289.197C1610.68 291.772 1615.89 293.06 1621.71 293.06C1627.6 293.06 1632.81 291.772 1637.35 289.197C1641.89 286.621 1645.44 283.065 1648.02 278.528C1650.59 273.929 1651.88 268.717 1651.88 262.892V146.636ZM1728.06 387.977V193.727H1778.46V218.376H1779.56C1781.4 213.594 1784.1 209.21 1787.66 205.224C1791.21 201.177 1795.63 197.958 1800.9 195.567C1806.18 193.114 1812.31 191.888 1819.3 191.888C1828.62 191.888 1837.48 194.371 1845.88 199.338C1854.34 204.304 1861.21 212.122 1866.48 222.791C1871.82 233.46 1874.48 247.318 1874.48 264.364C1874.48 280.674 1871.94 294.194 1866.85 304.924C1861.82 315.655 1855.08 323.656 1846.61 328.93C1838.21 334.203 1828.99 336.839 1818.93 336.839C1812.31 336.839 1806.39 335.766 1801.18 333.62C1796.03 331.413 1791.61 328.439 1787.93 324.699C1784.32 320.897 1781.53 316.605 1779.56 311.822H1778.83V387.977H1728.06ZM1777.73 264.364C1777.73 271.231 1778.61 277.179 1780.39 282.207C1782.23 287.173 1784.81 291.036 1788.12 293.795C1791.49 296.493 1795.51 297.842 1800.17 297.842C1804.83 297.842 1808.78 296.524 1812.03 293.887C1815.34 291.19 1817.86 287.357 1819.57 282.391C1821.35 277.363 1822.24 271.354 1822.24 264.364C1822.24 257.374 1821.35 251.395 1819.57 246.429C1817.86 241.401 1815.34 237.568 1812.03 234.932C1808.78 232.234 1804.83 230.885 1800.17 230.885C1795.51 230.885 1791.49 232.234 1788.12 234.932C1784.81 237.568 1782.23 241.401 1780.39 246.429C1778.61 251.395 1777.73 257.374 1777.73 264.364Z" fill="white"/>
<mask id="mask0_3_6" style="mask-type:alpha" maskUnits="userSpaceOnUse" x="368" y="0" width="576" height="500">
<path d="M575.331 431.25C452.283 423.569 402.379 96.3563 634.879 86.4578C874.728 76.2463 794.008 446.513 615.233 325.224C551.777 282.154 608.506 171.75 670.17 198.481" stroke="#9C2AFF" stroke-opacity="0.9" stroke-width="32" stroke-linecap="round" stroke-linejoin="round"/>
<path d="M736.669 68.75C859.717 76.4313 909.621 403.644 677.121 413.542C437.272 423.754 517.992 53.4876 696.767 174.776C760.223 217.846 703.494 328.25 641.83 301.519" stroke="#9C2AFF" stroke-opacity="0.9" stroke-width="32" stroke-linecap="round" stroke-linejoin="round"/>
</mask>
<g mask="url(#mask0_3_6)">
<rect x="406" y="400" width="500" height="100" fill="#6C0BF4"/>
<rect x="406" y="300" width="500" height="100" fill="#A163F8"/>
<rect x="406" y="200" width="500" height="100" fill="#BB8FFA"/>
<rect x="406" y="100" width="500" height="100" fill="#D6BBFC"/>
<rect x="406" width="500" height="100" fill="#F0E7FE"/>
</g>
</svg>
